<?xml version="1.0" encoding="utf-8"?>
<!-- Generator: Adobe Illustrator 24.3.0, SVG Export Plug-In . SVG Version: 6.00 Build 0)  -->
<svg version="1.1" id="Ebene_1" xmlns="http://www.w3.org/2000/svg" xmlns:xlink="http://www.w3.org/1999/xlink" x="0px" y="0px"
	 viewBox="0 0 1920 430.6" style="enable-background:new 0 0 1920 430.6;" xml:space="preserve">
<style type="text/css">
	.st0{fill:#1E5EA8;}
	.st1{fill:#054A80;}
	.st2{fill:#088F9B;}
	.st3{fill:#006B75;}
	.st4{fill:#F08223;}
	.st5{fill:#D47113;}
	.st6{fill:#2F3944;}
	.st7{enable-background:new    ;}
	.st8{fill:#225EA9;}
</style>
<g id="tta-signet__x28_1_x29__xA0_Bild_00000151525389136487776860000002797930047504266170_">
	<g>
		<polygon class="st0" points="311.6,205 192.9,136.6 192.9,0 311.6,68.4 		"/>
		<polygon class="st1" points="311.6,205 192.9,136.6 74.3,205 193,273.4 		"/>
		<polygon class="st2" points="335.3,205 454,136.6 454,0 335.3,68.4 		"/>
		<polygon class="st3" points="335.3,205 454,136.6 572.6,205 453.9,273.4 		"/>
		<polygon class="st4" points="323.4,362.1 204.9,430.6 204.9,293.8 323.4,225.3 		"/>
		<polygon class="st5" points="323.4,362.1 441.9,430.6 441.9,293.8 323.4,225.3 		"/>
	</g>
	<g id="ÖSTERREICH">
		<path class="st6" d="M1415.1,230.9c-7.1,0-13.1,2.4-17.9,7.1c-4.9,4.7-7.3,10.6-7.3,17.7c0,7.1,2.4,13,7.3,17.7s10.8,7.1,17.9,7.1
			s13.1-2.4,17.9-7.1c4.9-4.7,7.3-10.6,7.3-17.7c0-7.1-2.4-13-7.3-17.7C1428.2,233.3,1422.2,230.9,1415.1,230.9z M1425.3,266.7
			c-2.8,3-6.1,4.5-10.1,4.5s-7.4-1.5-10.1-4.5c-2.8-3-4.1-6.6-4.1-10.9c0-4.3,1.4-7.9,4.1-11c2.8-3,6.1-4.5,10.1-4.5
			s7.4,1.5,10.1,4.5c2.8,3,4.1,6.7,4.1,11C1429.4,260,1428,263.7,1425.3,266.7z M1408.4,226.9c1.4,0,2.6-0.5,3.6-1.5
			s1.5-2.2,1.5-3.6c0-1.4-0.5-2.6-1.5-3.6s-2.2-1.5-3.6-1.5s-2.6,0.5-3.6,1.5s-1.5,2.2-1.5,3.6c0,1.4,0.5,2.6,1.5,3.6
			C1405.7,226.4,1406.9,226.9,1408.4,226.9z M1421.6,226.9c1.4,0,2.6-0.5,3.6-1.5s1.5-2.2,1.5-3.6c0-1.4-0.5-2.6-1.5-3.6
			s-2.2-1.5-3.6-1.5s-2.6,0.5-3.6,1.5s-1.5,2.2-1.5,3.6c0,1.4,0.5,2.6,1.5,3.6S1420.2,226.9,1421.6,226.9z M1468,251.2
			c-4.6-1.1-7.5-2.1-8.7-2.9c-1.3-0.8-1.9-1.9-1.9-3.3c0-1.4,0.5-2.5,1.5-3.4c1-0.8,2.4-1.3,4.2-1.3c4.4,0,8.8,1.6,12.9,4.7l5.4-7.8
			c-2.4-2-5.2-3.6-8.4-4.7c-3.2-1.1-6.4-1.7-9.6-1.7c-4.9,0-9,1.2-12.3,3.7s-4.9,6-4.9,10.6s1.3,7.9,3.9,10s6.7,3.9,12.3,5.2
			c3.5,0.9,5.9,1.7,7.1,2.6c1.2,0.8,1.8,2,1.8,3.4s-0.6,2.6-1.7,3.4c-1.1,0.8-2.7,1.3-4.6,1.3c-4.4,0-9.2-2.3-14.4-6.8l-6.4,7.8
			c6.1,5.6,12.9,8.5,20.6,8.5c5.3,0,9.5-1.3,12.8-4c3.2-2.7,4.8-6.2,4.8-10.5s-1.3-7.6-3.8-9.8C1476.1,254,1472.6,252.3,1468,251.2z
			 M1485.4,241.3h13.6v38.8h10.7v-38.8h13.6V232h-38v9.3H1485.4z M1540.2,260.6h21.5v-9.1h-21.5v-9.9h23.9V232h-34.7v48.1h35.4v-9.5
			h-24.7L1540.2,260.6L1540.2,260.6z M1611.7,247.9c0-5.6-1.6-9.6-4.8-12.2c-3.2-2.5-8.5-3.8-16-3.8h-18.2V280h10.7v-15.3h7.4
			l10.7,15.3h13.2l-12.2-17.2C1608.7,260.6,1611.7,255.6,1611.7,247.9z M1598.8,253.6c-1.3,1.2-3.8,1.8-7.5,1.8h-7.8v-14.2h8
			c3.4,0,5.8,0.5,7.2,1.4c1.4,1,2.1,2.7,2.1,5.3C1600.8,250.6,1600.2,252.4,1598.8,253.6z M1660,247.9c0-5.6-1.6-9.6-4.8-12.2
			c-3.2-2.5-8.5-3.8-16-3.8H1621V280h10.7v-15.3h7.4l10.7,15.3h13.2l-12.2-17.2C1657,260.6,1660,255.6,1660,247.9z M1647.1,253.6
			c-1.3,1.2-3.8,1.8-7.5,1.8h-7.8v-14.2h8c3.4,0,5.8,0.5,7.2,1.4c1.4,1,2.1,2.7,2.1,5.3C1649.1,250.6,1648.4,252.4,1647.1,253.6z
			 M1680,260.6h21.5v-9.1H1680v-9.9h23.9V232h-34.7v48.1h35.4v-9.5H1680V260.6z M1712.5,280h10.7v-48.1h-10.7V280z M1756.2,241.1
			c5,0,9.3,2.1,12.7,6.3l6.7-7.6c-5.3-6-11.9-9-19.8-9c-7.1,0-13,2.4-17.9,7.2s-7.3,10.7-7.3,17.8s2.4,13,7.2,17.7
			c4.8,4.7,10.9,7,18.3,7s13.8-3.1,19.3-9.2l-6.9-7.1c-3.3,4.2-7.7,6.3-12.9,6.3c-3.9,0-7.1-1.4-9.8-4.1c-2.7-2.7-4.1-6.3-4.1-10.8
			s1.4-8,4.3-10.7C1748.7,242.4,1752.2,241.1,1756.2,241.1z M1811.8,232v20.1h-19.1V232H1782v48.1h10.7v-18.9h19.1v18.9h10.7V232
			L1811.8,232L1811.8,232z"/>
	</g>
</g>
<g id="TIMETOACT_00000078037770657261868420000008146350738437834910_" class="st7">
</g>
<g id="GROUP_00000164495481163521760450000017041722136603559860_" class="st7">
</g>
<g id="_xAE__00000011737877249933958680000012897646349151495591_" class="st7">
	<g id="TIMETOACT">
		<path class="st8" d="M1021.3,134.2h74.1v-31.5h-74.1V68.6h82.4V35.7H984.4v165.5h121.9v-32.7h-85L1021.3,134.2L1021.3,134.2z
			 M724.2,201.2h36.9V35.7h-36.9V201.2z M1478.7,35.7l-71.5,165.5h39.3l15.4-35.7h69.4l15.4,35.7h39.3l-71.5-165.5H1478.7z
			 M1475.9,133l20.8-48.1l20.6,48.1H1475.9z M578.4,67.7h46.9v133.5h36.9V67.7h46.9v-32H578.4V67.7z M872.8,126.6l-42.6-90.9h-50
			v165.5h36.9V97.1l44.5,90.4h22l44.7-90.4v104.2h36.9V35.7h-49.7L872.8,126.6z M1113.6,67.7h46.9v133.5h36.9V67.7h46.9v-32h-130.7
			L1113.6,67.7L1113.6,67.7z M1394.2,56.5c-16.7-16.3-37.3-24.5-61.8-24.5s-45.1,8.2-61.8,24.5c-16.7,16.3-25.1,36.7-25.1,61
			s8.4,44.6,25.1,61c16.7,16.3,37.3,24.5,61.8,24.5s45.1-8.2,61.8-24.5c16.7-16.3,25.1-36.7,25.1-61
			C1419.3,93.1,1410.9,72.8,1394.2,56.5z M1367.4,155.2c-9.5,10.3-21.1,15.5-34.9,15.5s-25.5-5.2-34.9-15.5
			c-9.5-10.3-14.2-22.9-14.2-37.6c0-14.8,4.7-27.3,14.2-37.8c9.5-10.4,21.1-15.6,34.9-15.6s25.5,5.2,34.9,15.6
			c9.5,10.4,14.2,23,14.2,37.8C1381.6,132.3,1376.9,144.8,1367.4,155.2z M1659.4,168.6c-13.3,0-24.5-4.7-33.9-14
			c-9.3-9.3-14-21.7-14-37.1c0-15.4,4.9-27.6,14.8-36.7c9.9-9.1,21.7-13.6,35.6-13.6c1.6,0,3.2,0.1,4.7,0.2V32.1
			c-2.1-0.1-4.2-0.2-6.4-0.2c-24.3,0-44.9,8.2-61.7,24.6c-16.8,16.4-25.2,36.9-25.2,61.4s8.2,44.9,24.7,61s37.5,24.1,63,24.1
			s47.6-10.6,66.4-31.7l-23.7-24.4C1692.4,161.4,1677.6,168.6,1659.4,168.6z M1695.5,35.7v32h46.9v133.5h36.9V67.7h46.9v-32H1695.5z
			"/>
	</g>
	<g id="GROUP">
		<path class="st6" d="M887.2,286.2c0-19.3-5.5-33.2-16.5-41.9s-29.3-13-55-13H753v165.5h36.8v-90.3l0.2,0.2V263h27.7
			c11.8,0,20.1,1.7,24.9,5c4.7,3.3,7.1,9.4,7.1,18.3c0,8.9-2.3,15.4-6.9,19.5c-4.6,4.1-13.2,6.2-25.8,6.2h-23.3l58.8,84.8h45.2
			l-41.9-59.2C876.7,329.8,887.2,312.7,887.2,286.2z M699.6,357.9c-8.5,4.9-19.2,7.3-32,7.3s-23.8-4.7-33-14.1s-13.8-21.9-13.8-37.5
			s4.8-28.2,14.4-37.8c9.6-9.5,21.5-14.3,35.5-14.3c7.3,0,14,1.2,20.2,3.7c6.2,2.4,13.1,6.9,20.5,13.4l19.2-27.7
			c-17.5-15.6-38.2-23.4-61.9-23.4c-23.8,0-44,8.2-60.8,24.6c-16.8,16.4-25.2,36.9-25.2,61.4s8.2,44.9,24.7,61s36.9,24.1,61.2,24.1
			c29,0,51.8-9.2,68.2-27.5v-58.7h-37.2L699.6,357.9L699.6,357.9z M1360.4,246.1c-11.6-9.9-30.1-14.8-55.5-14.8h-58.5v165.5h36.9
			v-46.2h22c24.5,0,42.7-4.7,54.6-14.2s17.9-24.4,17.9-44.9C1377.8,271.1,1372,255.9,1360.4,246.1z M1333.3,311.2
			c-4.4,5-12.8,7.5-25.1,7.5h-24.9v-55.6h21.1c12.2,0,21.1,2,26.9,6s8.6,10.8,8.6,20.4C1339.9,298.9,1337.7,306.2,1333.3,311.2z
			 M1192.9,322.7c0,13.3-3,23.7-9.1,31.4c-6.1,7.7-14.3,11.5-24.7,11.5c-10.4,0-18.7-3.8-24.9-11.5c-6.2-7.7-9.2-18.1-9.2-31.4
			v-91.4h-37v92.6c0,23.8,6.7,42.2,20,55.2c13.3,12.9,30.3,19.4,51,19.4s37.6-6.4,50.9-19.3s19.9-31.3,19.9-55.3v-92.6h-36.9V322.7z
			 M989,227.5c-24.5,0-45.1,8.2-61.8,24.5s-25.1,36.7-25.1,61c0,24.3,8.4,44.6,25.1,61c16.7,16.3,37.3,24.5,61.8,24.5
			s45.1-8.2,61.8-24.5c16.7-16.3,25.1-36.7,25.1-61s-8.4-44.6-25.1-61C1034,235.6,1013.4,227.5,989,227.5z M1024,350.7
			c-9.5,10.3-21.1,15.5-34.9,15.5c-13.8,0-25.5-5.2-34.9-15.5c-9.5-10.3-14.2-22.9-14.2-37.6c0-14.8,4.7-27.3,14.2-37.8
			c9.5-10.4,21.1-15.6,34.9-15.6c13.8,0,25.5,5.2,34.9,15.6c9.5,10.4,14.2,23,14.2,37.8C1038.2,327.8,1033.5,340.4,1024,350.7z"/>
	</g>
</g>
</svg>
